<svg xmlns="http://www.w3.org/2000/svg" xmlns:xlink="http://www.w3.org/1999/xlink" fill="none" version="1.1" width="16.255859375" height="16" viewBox="0 0 16.255859375 16"><defs><clipPath id="master_svg0_1402_023501/1402_006635"><rect x="2.666015625" y="2.666015625" width="10.668000221252441" height="10.668001174926758" rx="0"/></clipPath></defs><g><g><path d="M0.255859375,12.8L0.255859375,3.2C0.255859375,1.43269,1.688549375,0,3.455859375,0L13.055859375,0C14.823159375,0,16.255859375,1.43269,16.255859375,3.2L16.255859375,12.8C16.255859375,14.5673,14.823159375,16,13.055859375,16L3.455859375,16C1.688549375,16,0.255859375,14.5673,0.255859375,12.8Z" fill="#3A89FE" fill-opacity="1"/></g><g clip-path="url(#master_svg0_1402_023501/1402_006635)"><g><path d="M7.405242648162842,9.262465703125L6.588362648162842,7.016845703125L6.162579648162842,7.016845703125L5.345702648162842,9.262465703125L5.922877648162842,9.262465703125L6.033266648162842,8.928145703125L6.723982648162842,8.928145703125L6.828062648162842,9.262465703125L7.405242648162842,9.262465703125ZM6.578902648162842,8.467665703125L6.187810648162841,8.467665703125L6.389662648162842,7.868415703125L6.578902648162842,8.467665703125ZM9.288162648162842,7.739103703125C9.288162648162842,7.370089703125,9.020072648162841,7.016845703125,8.521742648162842,7.016845703125L7.632322648162842,7.016845703125L7.632322648162842,9.262465703125L8.184272648162843,9.262465703125L8.184272648162843,8.461365703125L8.521742648162842,8.461365703125C9.020072648162841,8.461365703125,9.288162648162842,8.108115703125,9.288162648162842,7.739103703125ZM8.73621264816284,7.739103703125C8.73621264816284,7.855800703125,8.647902648162841,7.966188703125,8.496512648162842,7.966188703125L8.184272648162843,7.966188703125L8.184272648162843,7.512017703125L8.496512648162842,7.512017703125C8.647902648162841,7.512017703125,8.73621264816284,7.622406703125,8.73621264816284,7.739103703125ZM10.16180264816284,9.262465703125L10.16180264816284,7.016845703125L9.609862648162842,7.016845703125L9.609862648162842,9.262465703125L10.16180264816284,9.262465703125Z" fill="#FFFFFF" fill-opacity="1"/></g><g><path d="M8.000197499999999,4.769921875Q8.0789875,4.769921875,8.1562675,4.754551875Q8.2335475,4.739181875,8.3063375,4.7090218749999995Q8.379137499999999,4.6788718750000005,8.4446475,4.635101875Q8.5101675,4.591321875,8.5658775,4.535611875Q8.6215975,4.479891875,8.6653675,4.414381875Q8.7091475,4.348861875,8.7392975,4.2760718749999995Q8.7694475,4.203271875,8.784827499999999,4.125993875Q8.8001975,4.048714875,8.8001975,3.969921875Q8.8001975,3.891128875,8.784827499999999,3.813849875Q8.7694475,3.736570875,8.7392975,3.663774875Q8.7091475,3.590979875,8.6653675,3.525465875Q8.6215975,3.459951875,8.5658775,3.404236875Q8.5101675,3.348520875,8.4446475,3.304745875Q8.379137499999999,3.260971075,8.3063375,3.230818275Q8.2335475,3.200665375,8.1562675,3.185293675Q8.0789875,3.169921875,8.000197499999999,3.169921875Q7.9213975,3.169921875,7.8441175,3.185293675Q7.7668475,3.200665375,7.6940475,3.230818275Q7.6212575,3.260971075,7.5557375,3.304745875Q7.4902275,3.348520875,7.4345075,3.404236875Q7.3787975,3.459951875,7.3350175,3.525465875Q7.2912475,3.590979875,7.2610875,3.663774875Q7.2309375,3.736570875,7.215567500000001,3.813849875Q7.2001975,3.891128875,7.2001975,3.969921875Q7.2001975,4.048714875,7.215567500000001,4.125993875Q7.2309375,4.203271875,7.2610875,4.2760718749999995Q7.2912475,4.348861875,7.3350175,4.414381875Q7.3787975,4.479891875,7.4345075,4.535611875Q7.4902275,4.591321875,7.5557375,4.635101875Q7.6212575,4.6788718750000005,7.6940475,4.7090218749999995Q7.7668475,4.739181875,7.8441175,4.754551875Q7.9213975,4.769921875,8.000197499999999,4.769921875ZM9.1452975,4.327561875Q9.1998075,4.152945875,9.1998075,3.970019875Q9.1998075,3.729963875,9.107457499999999,3.508381875Q9.4278975,3.585893875,9.739587499999999,3.709289875Q10.649727500000001,4.069605875,11.3418975,4.761771875Q12.0340575,5.453931875,12.3943775,6.3640718750000005Q12.7262275,7.202301875,12.7262275,8.103831875000001Q12.7262275,8.965551875,12.4230375,9.769431875Q12.2879175,9.617431875000001,12.1102475,9.518441875Q11.9325875,9.419441875,11.7322275,9.384521875Q11.9457175,8.764541874999999,11.9457175,8.103831875000001Q11.9457175,7.351181875,11.6686675,6.651371875000001Q11.3678575,5.891531875,10.7899975,5.313671875Q10.212127500000001,4.735811875,9.4522875,4.434991875Q9.3000475,4.3747218750000005,9.1452975,4.327561875ZM6.8543075,4.327581875Q6.6995875,4.374731875,6.5473675,4.434991875Q5.7875274999999995,4.735811875,5.2096675,5.313671875Q4.6318075,5.891531875,4.3309875,6.651371875000001Q4.0539425,7.351181875,4.0539425,8.103831875000001Q4.0539425,8.764531875,4.2674315,9.384511875000001Q4.0670715,9.419431875,3.8894045,9.518411875Q3.7117375,9.617391875,3.5766075,9.769391875Q3.2734375,8.965531875,3.2734375,8.103831875000001Q3.2734375,7.202301875,3.6052855,6.3640718750000005Q3.9656015,5.453931875,4.6577675,4.761771875Q5.3499275,4.069605875,6.2600675,3.709289875Q6.571737499999999,3.5859048749999998,6.8921475,3.508395875Q6.7998075,3.729971875,6.7998075,3.970019875Q6.7998075,4.152952875,6.8543075,4.327581875ZM4.4738275000000005,11.366601875Q4.5526175,11.366601875,4.6298975,11.351231875Q4.7071775,11.335861875,4.7799775,11.305701875Q4.8527675,11.275551875,4.9182875,11.231771875Q4.9837975,11.188001875,5.0395175000000005,11.132281875Q5.0952275,11.076571874999999,5.1390075,11.011061875Q5.1827775,10.945541875,5.2129275,10.872751874999999Q5.2430875,10.799951875,5.2584575000000005,10.722671875Q5.2738274999999994,10.645391875,5.2738274999999994,10.566601875Q5.2738274999999994,10.487811875,5.2584575000000005,10.410531875Q5.2430875,10.333251875,5.2129275,10.260451875000001Q5.1827775,10.187661875,5.1390075,10.122141875Q5.0952275,10.056631875,5.0395175000000005,10.000911875Q4.9837975,9.945201875,4.9182875,9.901421875Q4.8527675,9.857651875,4.7799775,9.827501875Q4.7071775,9.797341875,4.6298975,9.781971875Q4.5526175,9.766601875,4.4738275000000005,9.766601875Q4.3950375,9.766601875,4.3177575,9.781971875Q4.2404765,9.797341875,4.1676815000000005,9.827501875Q4.0948855,9.857651875,4.0293715,9.901421875Q3.9638575,9.945201875,3.9081425,10.000911875Q3.8524275,10.056631875,3.8086525,10.122141875Q3.7648775,10.187661875,3.7347245,10.260451875000001Q3.7045715,10.333251875,3.6891995,10.410531875Q3.6738285,10.487811875,3.6738285,10.566601875Q3.6738285,10.645391875,3.6891995,10.722671875Q3.7045715,10.799951875,3.7347245,10.872751874999999Q3.7648775,10.945541875,3.8086525,11.011061875Q3.8524275,11.076571874999999,3.9081425,11.132291875Q3.9638575,11.188001875,4.0293715,11.231771875Q4.0948855,11.275551875,4.1676815000000005,11.305701875Q4.2404765,11.335861875,4.3177575,11.351231875Q4.3950375,11.366601875,4.4738275000000005,11.366601875ZM11.5265675,11.366601875Q11.6053575,11.366601875,11.6826375,11.351231875Q11.7599175,11.335861875,11.8327075,11.305701875Q11.9055075,11.275551875,11.9710175,11.231771875Q12.0365375,11.188001875,12.0922475,11.132281875Q12.1479675,11.076571874999999,12.1917375,11.011061875Q12.2355075,10.945541875,12.2656675,10.872751874999999Q12.2958175,10.799951875,12.3111875,10.722671875Q12.3265575,10.645391875,12.3265675,10.566601875Q12.3265575,10.487811875,12.3111875,10.410531875Q12.2958175,10.333251875,12.2656675,10.260451875000001Q12.2355075,10.187661875,12.1917375,10.122141875Q12.1479675,10.056631875,12.0922475,10.000911875Q12.0365375,9.945201875,11.9710175,9.901421875Q11.9055075,9.857651875,11.8327075,9.827501875Q11.7599175,9.797341875,11.6826375,9.781971875Q11.6053575,9.766601875,11.5265675,9.766601875Q11.4477675,9.766601875,11.3704875,9.781971875Q11.2932075,9.797341875,11.2204175,9.827501875Q11.147617499999999,9.857651875,11.0821075,9.901421875Q11.0165875,9.945201875,10.960877499999999,10.000911875Q10.9051575,10.056631875,10.8613875,10.122141875Q10.817607500000001,10.187661875,10.7874575,10.260451875000001Q10.7573075,10.333251875,10.741937499999999,10.410531875Q10.7265575,10.487811875,10.7265575,10.566601875Q10.7265575,10.645391875,10.741937499999999,10.722671875Q10.7573075,10.799951875,10.7874575,10.872751874999999Q10.817607500000001,10.945541875,10.8613875,11.011061875Q10.9051575,11.076571874999999,10.960877499999999,11.132291875Q11.0165875,11.188001875,11.0821075,11.231771875Q11.147617499999999,11.275551875,11.2204175,11.305701875Q11.2932075,11.335861875,11.3704875,11.351231875Q11.4477675,11.366601875,11.5265675,11.366601875ZM10.4873975,11.167481875Q10.5892175,11.343541875,10.7433675,11.476211875Q10.8975175,11.608881875,11.0867675,11.683361875Q10.4866075,12.202641875,9.739587499999999,12.498381875Q8.9013575,12.830231875,7.9998275,12.830231875Q7.0982975,12.830231875,6.2600675,12.498381875Q5.5130475,12.202641875,4.9128675,11.683341875Q5.1021275,11.608861875,5.2562675,11.476191875Q5.4104075,11.343511875,5.5122275,11.167451875000001Q5.9788675,11.547611875,6.5473675,11.772671875Q7.247177499999999,12.049721875,7.9998275,12.049721875Q8.7524875,12.049721875,9.4522875,11.772671875Q10.020777500000001,11.547621875,10.4873975,11.167481875Z" fill-rule="evenodd" fill="#FFFFFF" fill-opacity="1"/></g></g></g></svg>